<svg xmlns="http://www.w3.org/2000/svg" viewBox="0 0 71.00 114.00" fill="none"><path transform="translate(0.19 0.27)" d="M35.3567 35.5119L35.3567 36.0119L35.8567 36.0119L35.8567 35.5119L35.3567 35.5119ZM10.3539 25.0873L9.99909 25.4395L9.99918 25.4396L10.3539 25.0873ZM0 0L0 -0.5L-0.501231 -0.5L-0.499998 0.00122923L0 0ZM25.0028 10.4246L25.3575 10.0723L25.0028 10.4246ZM35.3567 35.5081L35.8567 35.5081L35.8567 35.5071L35.3567 35.5081ZM35.3567 35.5119L35.3567 35.0119C26.4373 35.0119 17.5152 31.5879 10.7087 24.7349L10.3539 25.0873L9.99918 25.4396C17.0004 32.4886 26.181 36.0119 35.3567 36.0119L35.3567 35.5119ZM10.3539 25.0873L10.7088 24.735C3.92767 17.9039 0.52202 8.95617 0.499998 -0.00122923L0 0L-0.499998 0.00122923C-0.477359 9.21008 3.02458 18.4136 9.99909 25.4395L10.3539 25.0873ZM0 0L0 0.5C8.91943 0.5 17.8415 3.92399 24.648 10.777L25.0028 10.4246L25.3575 10.0723C18.3563 3.02326 9.17576 -0.5 0 -0.5L0 0ZM25.0028 10.4246L24.648 10.777C31.4328 17.6081 34.8384 26.5557 34.8567 35.5092L35.3567 35.5081L35.8567 35.5071C35.8378 26.3018 32.3358 17.0982 25.3575 10.0723L25.0028 10.4246ZM35.3567 35.5081L34.8567 35.5081L34.8567 35.5119L35.3567 35.5119L35.8567 35.5119L35.8567 35.5081L35.3567 35.5081Z" fill="#ffffff" fill-opacity="1"/><path transform="translate(35.55 0.19)" d="M35.2674 0L35.7674 0L35.7674 -0.501248L35.2661 -0.499998L35.2674 0ZM24.9135 25.1735L25.2682 25.5258L24.9135 25.1735ZM0 35.5981L-0.5 35.5981L-0.5 36.0991L0.00103882 36.0981L0 35.5981ZM35.2674 0L34.7674 0C34.7674 8.98334 31.3654 17.968 24.5587 24.8211L24.9135 25.1735L25.2682 25.5258C32.2693 18.477 35.7674 9.23537 35.7674 0L35.2674 0ZM24.9135 25.1735L24.5587 24.8211C17.7741 31.652 8.88871 35.0796 -0.00103882 35.0981L0 35.5981L0.00103882 36.0981C9.14693 36.0791 18.2898 32.5519 25.2682 25.5258L24.9135 25.1735ZM0 35.5981L0.5 35.5981C0.5 26.6147 3.90201 17.6301 10.7087 10.777L10.3539 10.4246L9.99918 10.0723C2.99814 17.1211 -0.5 26.3627 -0.5 35.5981L0 35.5981ZM10.3539 10.4246L10.7087 10.777C17.5154 3.9238 26.3747 0.522164 35.2686 0.499998L35.2674 0L35.2661 -0.499998C26.117 -0.477198 17.0002 3.02344 9.99918 10.0723L10.3539 10.4246Z" fill="#ffffff" fill-opacity="1"/><path transform="translate(0.19 26.29)" d="M35.3567 35.5081L35.3567 36.0081L35.8577 36.0081L35.8567 35.5071L35.3567 35.5081ZM10.3539 25.0835L9.99909 25.4358L9.99918 25.4359L10.3539 25.0835ZM0 0L0 -0.5L-0.501231 -0.5L-0.499998 0.00122974L0 0ZM25.0028 10.4246L25.3575 10.0723L25.0028 10.4246ZM35.3567 35.5081L35.3567 35.0081C26.4373 35.0081 17.5152 31.5841 10.7087 24.7312L10.3539 25.0835L9.99918 25.4359C17.0004 32.4849 26.181 36.0081 35.3567 36.0081L35.3567 35.5081ZM10.3539 25.0835L10.7088 24.7313C3.92765 17.9001 0.52202 8.95239 0.499998 -0.00122974L0 0L-0.499998 0.00122974C-0.477359 9.20637 3.0246 18.4099 9.99909 25.4358L10.3539 25.0835ZM0 0L0 0.5C8.91943 0.5 17.8415 3.92399 24.648 10.777L25.0028 10.4246L25.3575 10.0723C18.3563 3.02326 9.17576 -0.5 0 -0.5L0 0ZM25.0028 10.4246L24.648 10.777C31.4328 17.6081 34.8384 26.5557 34.8567 35.5092L35.3567 35.5081L35.8567 35.5071C35.8378 26.3018 32.3358 17.0982 25.3575 10.0723L25.0028 10.4246Z" fill="#ffffff" fill-opacity="1"/><path transform="translate(35.55 26.20)" d="M35.2674 0L35.7674 0L35.7674 -0.50104L35.2664 -0.499999L35.2674 0ZM24.9135 25.1734L25.2682 25.5258L24.9135 25.1734ZM0 35.5981L-0.5 35.5981L-0.5 36.0991L0.00103882 36.0981L0 35.5981ZM35.2674 0L34.7674 0C34.7674 8.98334 31.3654 17.968 24.5587 24.8211L24.9135 25.1734L25.2682 25.5258C32.2693 18.477 35.7674 9.23537 35.7674 0L35.2674 0ZM24.9135 25.1734L24.5587 24.8211C17.7741 31.652 8.88871 35.0796 -0.00103882 35.0981L0 35.5981L0.00103882 36.0981C9.14693 36.0791 18.2898 32.5519 25.2682 25.5258L24.9135 25.1734ZM0 35.5981L0.5 35.5981C0.5 26.6147 3.90201 17.6301 10.7087 10.777L10.3539 10.4246L9.99918 10.0723C2.99814 17.1211 -0.5 26.3627 -0.5 35.5981L0 35.5981ZM10.3539 10.4246L10.7087 10.777C17.5155 3.92372 26.3784 0.518469 35.2684 0.499999L35.2674 0L35.2664 -0.499999C26.1207 -0.480998 17.0001 3.02353 9.99918 10.0723L10.3539 10.4246Z" fill="#ffffff" fill-opacity="1"/><path transform="translate(0.19 52.30)" d="M35.3567 35.5081L35.3567 36.0081L35.8577 36.0081L35.8567 35.5071L35.3567 35.5081ZM10.3539 25.0835L9.99909 25.4358L9.99918 25.4359L10.3539 25.0835ZM0 0L0 -0.5L-0.501231 -0.5L-0.499998 0.00122974L0 0ZM25.0028 10.4246L25.3575 10.0723L25.0028 10.4246ZM35.3567 35.5081L35.3567 35.0081C26.4373 35.0081 17.5152 31.5841 10.7087 24.7312L10.3539 25.0835L9.99918 25.4359C17.0004 32.4849 26.181 36.0081 35.3567 36.0081L35.3567 35.5081ZM10.3539 25.0835L10.7088 24.7313C3.92765 17.9001 0.52202 8.95239 0.499998 -0.00122974L0 0L-0.499998 0.00122974C-0.477359 9.20637 3.0246 18.4099 9.99909 25.4358L10.3539 25.0835ZM0 0L0 0.5C8.91943 0.5 17.8415 3.92399 24.648 10.777L25.0028 10.4246L25.3575 10.0723C18.3563 3.02326 9.17576 -0.5 0 -0.5L0 0ZM25.0028 10.4246L24.648 10.777C31.4328 17.6081 34.8384 26.5557 34.8567 35.5092L35.3567 35.5081L35.8567 35.5071C35.8378 26.3018 32.3358 17.0982 25.3575 10.0723L25.0028 10.4246Z" fill="#ffffff" fill-opacity="1"/><path transform="translate(35.55 52.21)" d="M35.2674 0L35.7674 0L35.7674 -0.50104L35.2664 -0.499999L35.2674 0ZM24.9135 25.1734L25.2682 25.5258L24.9135 25.1734ZM0 35.5981L-0.5 35.5981L-0.5 36.0991L0.00103882 36.0981L0 35.5981ZM35.2674 0L34.7674 0C34.7674 8.98334 31.3654 17.968 24.5587 24.8211L24.9135 25.1734L25.2682 25.5258C32.2693 18.477 35.7674 9.23537 35.7674 0L35.2674 0ZM24.9135 25.1734L24.5587 24.8211C17.7741 31.652 8.88871 35.0796 -0.00103882 35.0981L0 35.5981L0.00103882 36.0981C9.14693 36.0791 18.2898 32.5519 25.2682 25.5258L24.9135 25.1734ZM0 35.5981L0.5 35.5981C0.5 26.6147 3.90201 17.6301 10.7087 10.777L10.3539 10.4246L9.99918 10.0723C2.99814 17.1211 -0.5 26.3627 -0.5 35.5981L0 35.5981ZM10.3539 10.4246L10.7087 10.777C17.5155 3.92372 26.3784 0.518469 35.2684 0.499999L35.2674 0L35.2664 -0.499999C26.1207 -0.480998 17.0001 3.02352 9.99918 10.0723L10.3539 10.4246Z" fill="#ffffff" fill-opacity="1"/><path transform="translate(0.19 78.30)" d="M35.3567 35.5081L35.3567 36.0081L35.8577 36.0081L35.8567 35.5071L35.3567 35.5081ZM10.3539 25.0835L9.99909 25.4358L9.99918 25.4359L10.3539 25.0835ZM0 0L0 -0.5L-0.501231 -0.5L-0.499998 0.00122974L0 0ZM25.0028 10.4246L25.3575 10.0723L25.0028 10.4246ZM35.3567 35.5081L35.3567 35.0081C26.4373 35.0081 17.5152 31.5841 10.7087 24.7312L10.3539 25.0835L9.99918 25.4359C17.0004 32.4849 26.181 36.0081 35.3567 36.0081L35.3567 35.5081ZM10.3539 25.0835L10.7088 24.7313C3.92765 17.9001 0.52202 8.95239 0.499998 -0.00122974L0 0L-0.499998 0.00122974C-0.477359 9.20637 3.0246 18.4099 9.99909 25.4358L10.3539 25.0835ZM0 0L0 0.5C8.91943 0.5 17.8415 3.92398 24.648 10.777L25.0028 10.4246L25.3575 10.0723C18.3563 3.02325 9.17576 -0.5 0 -0.5L0 0ZM25.0028 10.4246L24.648 10.777C31.4328 17.6081 34.8384 26.5557 34.8567 35.5092L35.3567 35.5081L35.8567 35.5071C35.8378 26.3018 32.3358 17.0982 25.3575 10.0723L25.0028 10.4246Z" fill="#ffffff" fill-opacity="1"/><path transform="translate(35.55 78.21)" d="M35.2674 0L35.7674 0L35.7674 -0.50104L35.2664 -0.499999L35.2674 0ZM0 35.5981L-0.5 35.5981L-0.5 36.0991L0.00103882 36.0981L0 35.5981ZM35.2674 0L34.7674 0C34.7674 8.98335 31.3654 17.968 24.5587 24.8211L24.9135 25.1735L25.2682 25.5258C32.2693 18.477 35.7674 9.23537 35.7674 0L35.2674 0ZM24.9135 25.1735L24.5587 24.8211C17.7741 31.652 8.88871 35.0796 -0.00103882 35.0981L0 35.5981L0.00103882 36.0981C9.14693 36.0791 18.2898 32.5519 25.2682 25.5258L24.9135 25.1735ZM0 35.5981L0.5 35.5981C0.5 26.6147 3.90201 17.6301 10.7087 10.777L10.3539 10.4246L9.99918 10.0723C2.99814 17.1211 -0.5 26.3627 -0.5 35.5981L0 35.5981ZM10.3539 10.4246L10.7087 10.777C17.5155 3.92372 26.3784 0.518469 35.2684 0.499999L35.2674 0L35.2664 -0.499999C26.1207 -0.480998 17.0001 3.02353 9.99918 10.0723L10.3539 10.4246Z" fill="#ffffff" fill-opacity="1"/></svg>