<svg xmlns="http://www.w3.org/2000/svg" viewBox="0 0 266.00 220.66" fill="none"><path transform="translate(-0.00 7.56)" d="M5.64413 36.8031C0.766905 27.1118 -2.95237 12.5801 3.26687 4.53079C7.03215 -0.352449 12.7683 -0.255857 17.8909 0.205636C58.7722 3.95124 99.3928 13.2455 138.993 27.9167C146.463 30.6857 154.108 33.7873 160.205 40.4307C166.301 47.074 170.573 58.1391 168.847 68.6783C166.263 84.4657 152.858 90.7764 141.47 93.6312C125.313 97.6773 108.971 100.264 92.5754 101.391C58.9026 103.698 24.7696 74.7743 5.64413 36.7924L5.64413 36.8031Z" fill="#8ac440" fill-opacity="1" fill-rule="nonzero"/><path transform="translate(109.11 0.00)" d="M50.2818 31.8462C81.2563 6.2116 119.993 -3.67631 156.891 1.20603C154.637 38.5014 137.593 74.7918 106.609 100.445C75.6349 126.089 36.8978 135.968 0 131.086C2.25424 93.7902 19.3072 57.4998 50.2818 31.8557" fill="#039045" fill-opacity="1" fill-rule="nonzero"/><path transform="translate(51.39 28.72)" d="M10.0837 51.2233C0.29575 38.3719 -6.10969 25.5399 8.99367 10.3036C36.8068 -17.755 93.1747 18.9935 118.875 31.8738C158.623 51.8026 176.052 91.7084 160.735 130.591C147.79 163.438 111.031 188.282 70.8568 191.584C50.3369 193.274 28.0976 189.131 13.7472 176.415C-23.0785 143.79 31.0082 121.486 31.5251 90.0863C31.7611 75.7094 19.3997 63.4567 10.0837 51.2233Z" fill="#8ac440" fill-opacity="1" fill-rule="nonzero"/><path transform="translate(61.97 96.73)" d="M12.2861 1.82576C6.38168 4.07258 1.2507 9.27724 0.203754 15.7428C-0.663986 21.0707 1.31672 26.6261 4.68393 30.7311C9.71117 36.8553 18.0301 39.9838 25.5663 38.1731C33.1024 36.3623 39.3841 29.4512 40.2801 21.4499C41.1196 14.0174 37.0638 7.43808 31.6216 3.0108C26.4435 -1.20792 18.1528 -0.402103 12.2767 1.83524" fill="#dfd3bf" fill-opacity="1" fill-rule="nonzero"/><path transform="translate(151.37 25.73)" d="M28.1257 28.3771L28.1257 28.8771L28.6257 28.8771L28.6257 28.3771L28.1257 28.3771ZM8.2364 20.0469L7.88076 20.3984L7.88085 20.3984L8.2364 20.0469ZM0 0L0 -0.5L-0.501225 -0.5L-0.499999 0.00122369L0 0ZM28.1257 28.3741L28.6257 28.3741L28.6257 28.3731L28.1257 28.3741ZM28.1257 28.3771L28.1257 27.8771C21.0574 27.8771 13.9867 25.1515 8.59195 19.6954L8.2364 20.0469L7.88085 20.3984C13.47 26.0512 20.7996 28.8771 28.1257 28.8771L28.1257 28.3771ZM8.2364 20.0469L8.59205 19.6955C3.21726 14.2565 0.517456 7.13196 0.499999 -0.00122369L0 0L-0.499999 0.00122369C-0.481929 7.38446 2.31315 14.7643 7.88076 20.3984L8.2364 20.0469ZM0 0L0 0.5C7.06834 0.5 14.1391 3.22556 19.5338 8.68172L19.8893 8.33017L20.2449 7.97862C14.6558 2.32589 7.32612 -0.5 0 -0.5L0 0ZM19.8893 8.33017L19.5338 8.68172C24.9115 14.1206 27.6112 21.2451 27.6257 28.3751L28.1257 28.3741L28.6257 28.3731C28.6107 20.9926 25.8155 13.6127 20.2449 7.97862L19.8893 8.33017ZM28.1257 28.3741L27.6257 28.3741L27.6257 28.3771L28.1257 28.3771L28.6257 28.3771L28.6257 28.3741L28.1257 28.3741Z" fill="#ffffff" fill-opacity="1"/><path transform="translate(179.50 25.66)" d="M28.0547 0L28.5547 0L28.5547 -0.501253L28.0534 -0.499998L28.0547 0ZM19.8183 20.1158L19.4627 19.7642L19.8183 20.1158ZM0 28.4459L-0.5 28.4459L-0.5 28.947L0.00104352 28.9459L0 28.4459ZM28.0547 0L27.5547 0C27.5547 7.15386 24.8578 14.3078 19.4627 19.7642L19.8183 20.1158L20.1738 20.4673C25.7627 14.8149 28.5547 7.40447 28.5547 0L28.0547 0ZM19.8183 20.1158L19.4627 19.7642C14.0853 25.2029 7.04371 27.9312 -0.00104352 27.9459L0 28.4459L0.00104352 28.9459C7.30338 28.9307 14.6029 26.1016 20.1738 20.4673L19.8183 20.1158ZM0 28.4459L0.5 28.4459C0.5 21.2921 3.19693 14.1382 8.59195 8.68172L8.2364 8.33017L7.88085 7.97862C2.29203 13.6311 -0.5 21.0415 -0.5 28.4459L0 28.4459ZM8.2364 8.33017L8.59195 8.68172C13.9869 3.22537 21.0077 0.517643 28.0559 0.499998L28.0547 0L28.0534 -0.499998C20.7487 -0.481711 13.4698 2.32608 7.88085 7.97862L8.2364 8.33017Z" fill="#ffffff" fill-opacity="1"/><path transform="translate(151.37 46.51)" d="M28.1257 28.3741L28.1257 28.8741L28.6268 28.8741L28.6257 28.3731L28.1257 28.3741ZM8.2364 20.0439L7.88076 20.3954L7.88085 20.3955L8.2364 20.0439ZM0 0L0 -0.5L-0.501226 -0.5L-0.499999 0.00122419L0 0ZM28.1257 28.3741L28.1257 27.8741C21.0574 27.8741 13.9867 25.1485 8.59195 19.6924L8.2364 20.0439L7.88085 20.3955C13.47 26.0482 20.7996 28.8741 28.1257 28.8741L28.1257 28.3741ZM8.2364 20.0439L8.59205 19.6925C3.21724 14.2535 0.517456 7.12894 0.499999 -0.00122419L0 0L-0.499999 0.00122419C-0.481929 7.38149 2.31317 14.7613 7.88076 20.3954L8.2364 20.0439ZM0 0L0 0.5C7.06834 0.5 14.1391 3.22556 19.5338 8.68172L19.8893 8.33017L20.2449 7.97862C14.6558 2.32589 7.32612 -0.5 0 -0.5L0 0ZM19.8893 8.33017L19.5338 8.68172C24.9115 14.1206 27.6112 21.2451 27.6257 28.3751L28.1257 28.3741L28.6257 28.3731C28.6107 20.9926 25.8155 13.6127 20.2449 7.97862L19.8893 8.33017Z" fill="#ffffff" fill-opacity="1"/><path transform="translate(179.50 46.44)" d="M28.0547 0L28.5547 0L28.5547 -0.501045L28.0536 -0.499999L28.0547 0ZM19.8183 20.1158L19.4627 19.7642L19.8183 20.1158ZM0 28.4459L-0.5 28.4459L-0.5 28.947L0.00104352 28.9459L0 28.4459ZM28.0547 0L27.5547 0C27.5547 7.15386 24.8578 14.3078 19.4627 19.7642L19.8183 20.1158L20.1738 20.4673C25.7627 14.8149 28.5547 7.40447 28.5547 0L28.0547 0ZM19.8183 20.1158L19.4627 19.7642C14.0853 25.2029 7.04371 27.9312 -0.00104352 27.9459L0 28.4459L0.00104352 28.9459C7.30338 28.9307 14.6029 26.1016 20.1738 20.4673L19.8183 20.1158ZM0 28.4459L0.5 28.4459C0.5 21.2921 3.19693 14.1382 8.59195 8.68172L8.2364 8.33017L7.88085 7.97862C2.29203 13.6311 -0.5 21.0415 -0.5 28.4459L0 28.4459ZM8.2364 8.33017L8.59195 8.68172C13.987 3.22529 21.0107 0.514702 28.0557 0.499999L28.0547 0L28.0536 -0.499999C20.7516 -0.484759 13.4697 2.32616 7.88085 7.97862L8.2364 8.33017Z" fill="#ffffff" fill-opacity="1"/><path transform="translate(151.37 67.30)" d="M28.1257 28.3741L28.1257 28.8741L28.6268 28.8741L28.6257 28.3731L28.1257 28.3741ZM8.2364 20.0439L7.88076 20.3954L7.88085 20.3955L8.2364 20.0439ZM0 0L0 -0.5L-0.501226 -0.5L-0.499999 0.00122419L0 0ZM19.8893 8.33017L20.2449 7.97862L19.8893 8.33017ZM28.1257 28.3741L28.1257 27.8741C21.0574 27.8741 13.9867 25.1485 8.59195 19.6924L8.2364 20.0439L7.88085 20.3955C13.47 26.0482 20.7996 28.8741 28.1257 28.8741L28.1257 28.3741ZM8.2364 20.0439L8.59205 19.6925C3.21724 14.2535 0.517456 7.12893 0.499999 -0.00122419L0 0L-0.499999 0.00122419C-0.481929 7.38149 2.31317 14.7613 7.88076 20.3954L8.2364 20.0439ZM0 0L0 0.5C7.06834 0.5 14.1391 3.22556 19.5338 8.68172L19.8893 8.33017L20.2449 7.97862C14.6558 2.32589 7.32612 -0.5 0 -0.5L0 0ZM19.8893 8.33017L19.5338 8.68172C24.9115 14.1206 27.6112 21.2451 27.6257 28.3751L28.1257 28.3741L28.6257 28.3731C28.6107 20.9926 25.8155 13.6127 20.2449 7.97862L19.8893 8.33017Z" fill="#ffffff" fill-opacity="1"/><path transform="translate(179.50 67.22)" d="M28.0547 0L28.5547 0L28.5547 -0.501045L28.0536 -0.499999L28.0547 0ZM19.8183 20.1158L19.4627 19.7642L19.8183 20.1158ZM0 28.4459L-0.5 28.4459L-0.5 28.947L0.00104352 28.9459L0 28.4459ZM28.0547 0L27.5547 0C27.5547 7.15386 24.8578 14.3078 19.4627 19.7642L19.8183 20.1158L20.1738 20.4673C25.7627 14.8149 28.5547 7.40447 28.5547 0L28.0547 0ZM19.8183 20.1158L19.4627 19.7642C14.0853 25.2029 7.04371 27.9312 -0.00104352 27.9459L0 28.4459L0.00104352 28.9459C7.30338 28.9307 14.6029 26.1016 20.1738 20.4673L19.8183 20.1158ZM0 28.4459L0.5 28.4459C0.5 21.2921 3.19693 14.1382 8.59195 8.68171L8.2364 8.33017L7.88085 7.97862C2.29203 13.6311 -0.5 21.0415 -0.5 28.4459L0 28.4459ZM8.2364 8.33017L8.59195 8.68171C13.987 3.22529 21.0107 0.514702 28.0557 0.499999L28.0547 0L28.0536 -0.499999C20.7516 -0.484759 13.4697 2.32616 7.88085 7.97862L8.2364 8.33017Z" fill="#ffffff" fill-opacity="1"/><path transform="translate(151.37 88.08)" d="M28.1257 28.3741L28.1257 28.8741L28.6268 28.8741L28.6257 28.3731L28.1257 28.3741ZM8.2364 20.0439L7.88076 20.3954L7.88085 20.3955L8.2364 20.0439ZM0 0L0 -0.5L-0.501226 -0.5L-0.499999 0.00122419L0 0ZM19.8893 8.33017L20.2449 7.97862L19.8893 8.33017ZM28.1257 28.3741L28.1257 27.8741C21.0574 27.8741 13.9867 25.1485 8.59195 19.6924L8.2364 20.0439L7.88085 20.3955C13.47 26.0482 20.7996 28.8741 28.1257 28.8741L28.1257 28.3741ZM8.2364 20.0439L8.59205 19.6925C3.21724 14.2535 0.517456 7.12893 0.499999 -0.00122419L0 0L-0.499999 0.00122419C-0.481929 7.38149 2.31317 14.7613 7.88076 20.3954L8.2364 20.0439ZM0 0L0 0.5C7.06834 0.5 14.1391 3.22556 19.5338 8.68171L19.8893 8.33017L20.2449 7.97862C14.6558 2.32589 7.32612 -0.5 0 -0.5L0 0ZM19.8893 8.33017L19.5338 8.68171C24.9115 14.1206 27.6112 21.2451 27.6257 28.3751L28.1257 28.3741L28.6257 28.3731C28.6107 20.9926 25.8155 13.6127 20.2449 7.97862L19.8893 8.33017Z" fill="#ffffff" fill-opacity="1"/><path transform="translate(179.50 88.01)" d="M28.0547 0L28.5547 0L28.5547 -0.501045L28.0536 -0.499999L28.0547 0ZM0 28.4459L-0.5 28.4459L-0.5 28.947L0.00104352 28.9459L0 28.4459ZM28.0547 0L27.5547 0C27.5547 7.15386 24.8578 14.3078 19.4627 19.7642L19.8183 20.1158L20.1738 20.4673C25.7627 14.8149 28.5547 7.40447 28.5547 0L28.0547 0ZM19.8183 20.1158L19.4627 19.7642C14.0853 25.2029 7.04371 27.9312 -0.00104352 27.9459L0 28.4459L0.00104352 28.9459C7.30338 28.9307 14.6029 26.1016 20.1738 20.4673L19.8183 20.1158ZM0 28.4459L0.5 28.4459C0.5 21.2921 3.19693 14.1382 8.59195 8.68172L8.2364 8.33017L7.88085 7.97862C2.29203 13.6311 -0.5 21.0415 -0.5 28.4459L0 28.4459ZM8.2364 8.33017L8.59195 8.68172C13.987 3.22529 21.0107 0.514702 28.0557 0.499999L28.0547 0L28.0536 -0.499999C20.7516 -0.484759 13.4697 2.32616 7.88085 7.97862L8.2364 8.33017Z" fill="#ffffff" fill-opacity="1"/></svg>