<svg width="300" height="82" viewBox="0 0 300 82" fill="none" xmlns="http://www.w3.org/2000/svg">
<path fill-rule="evenodd" clip-rule="evenodd" d="M57.9938 10.502C59.8592 10.502 61.5603 10.8104 63.0993 11.4258H73.8591V17.3105L68.8903 16.9297C69.5876 18.4874 69.9362 20.2674 69.9362 22.2705C69.9362 24.692 69.4243 26.6452 68.4089 28.3594C67.3891 30.0691 65.9739 31.3882 64.1686 32.3125C62.3591 33.2368 60.3023 33.6962 57.9938 33.6963C57.1349 33.6963 56.3028 33.6315 55.5036 33.5039C54.8769 33.5437 54.3096 33.6198 53.8014 33.7314C53.0116 33.905 52.3779 34.144 51.8962 34.4521C51.4146 34.7602 51.1755 35.1465 51.1755 35.6064C51.1756 36.0663 51.4275 36.4136 51.9264 36.6436C52.4254 36.8735 53.1762 36.9902 54.1784 36.9902H66.2946C67.9089 36.9902 69.3151 37.2989 70.5085 37.915C71.7019 38.5313 72.6051 39.3945 73.2214 40.5098C73.8375 41.625 74.1452 42.9703 74.1452 44.5498C74.1452 46.8194 73.5114 48.7812 72.2399 50.4346C70.9684 52.0879 69.0851 53.3679 66.5856 54.2705C64.086 55.1731 60.9876 55.625 57.2946 55.625C53.1417 55.625 49.8608 55.0088 47.4567 53.7764L47.0202 53.542C44.9072 52.3124 43.8504 50.5259 43.8503 48.1826C43.8503 46.7593 44.3193 45.5483 45.2653 44.5459C45.9678 43.7981 47.0709 42.9775 48.5768 42.083C48.298 41.9447 48.0292 41.7962 47.7731 41.6338C46.0419 40.5359 45.1784 39.0473 45.1784 37.1641C45.1784 35.8926 45.5732 34.7512 46.363 33.7314C47.1528 32.7116 48.3465 31.9045 49.9391 31.3057C49.9847 31.2887 50.0306 31.2723 50.0768 31.2559C49.0424 30.4655 48.1783 29.5018 47.487 28.3594C46.4498 26.6496 45.9294 24.6182 45.9294 22.2705C45.9294 19.9229 46.4585 17.74 47.5173 15.9521C48.5761 14.1642 50.0084 12.8057 51.818 11.8857C53.6277 10.9614 55.6852 10.502 57.9938 10.502ZM284.994 10.502C286.788 10.502 288.332 10.8105 289.754 11.4258H299.366V13.7344L292.86 13.5234C293.478 14.1533 294.01 14.8775 294.458 15.6963C295.382 17.3886 295.842 19.3888 295.842 21.6973C295.842 24.0059 295.382 25.9763 294.458 27.6123C293.533 29.2483 292.245 30.4987 290.591 31.3623C288.938 32.2258 287.05 32.6591 284.937 32.6592C283.544 32.6592 282.204 32.4697 280.983 32.0938C280.109 32.1461 279.31 32.3119 278.592 32.5947C277.707 32.9418 277.004 33.4015 276.488 33.9785C275.967 34.5556 275.711 35.1329 275.711 35.71C275.711 36.5171 276.162 37.2033 277.065 37.7588C277.968 38.3185 279.287 38.5957 281.018 38.5957H292.327C294.019 38.5957 295.434 38.8562 296.567 39.377C297.7 39.8977 298.559 40.6572 299.136 41.6553C299.714 42.6577 300 43.8471 300 45.2314C300 47.3101 299.374 49.1286 298.125 50.6865C296.875 52.2443 295.066 53.4554 292.701 54.3232C290.336 55.1868 287.497 55.6201 284.19 55.6201C280.037 55.6201 276.939 54.9568 274.899 53.6289L274.525 53.3818C272.732 52.0749 271.836 50.303 271.836 48.0693C271.836 46.4552 272.383 45.0321 273.48 43.7998C274.364 42.8072 275.678 41.7572 277.423 40.6396C276.695 40.4119 276.035 40.1065 275.446 39.7197C274.006 38.7781 273.281 37.5546 273.281 36.0576C273.281 35.0595 273.606 34.1433 274.261 33.3145C274.917 32.4901 275.85 31.8132 277.06 31.2969C277.471 31.1202 277.902 30.9761 278.35 30.8594C277.116 30.0371 276.13 28.9546 275.385 27.6123C274.483 25.9807 274.032 24.0058 274.032 21.6973C274.032 19.3889 274.492 17.3972 275.416 15.7266C276.34 14.0558 277.63 12.762 279.283 11.8594C280.936 10.9569 282.842 10.502 284.994 10.502ZM279.757 41.082C278.078 42.1529 276.801 43.1631 275.932 44.1113C274.895 45.244 274.375 46.4682 274.375 47.7744C274.375 49.4669 275.173 50.7944 276.77 51.7578C278.367 52.7168 280.897 53.1992 284.36 53.1992C288.283 53.1992 291.468 52.5524 293.911 51.2637C296.354 49.9749 297.574 48.061 297.574 45.5225C297.574 44.06 297.113 42.9658 296.189 42.2324C295.265 41.5036 293.707 41.1348 291.515 41.1348H281.014C280.58 41.1348 280.161 41.1164 279.757 41.082ZM52.7214 43.1914C52.1806 43.5885 51.7519 43.954 51.4362 44.29C50.7637 45.0017 50.4255 45.7613 50.4255 46.5684C50.4256 47.6443 51.0415 48.4336 52.2692 48.9326C53.5016 49.4316 55.4241 49.6836 58.0407 49.6836C61.3084 49.6836 63.774 49.3365 65.4274 48.6465C67.0806 47.9522 67.9089 46.9321 67.9089 45.5869C67.9088 44.7409 67.5531 44.146 66.8415 43.7988C66.1298 43.4518 64.967 43.2784 63.3532 43.2783H54.5261C53.8978 43.2783 53.2964 43.2478 52.7214 43.1914ZM169.36 10.4971C172.207 10.4971 174.755 11.287 176.777 12.8623C178.795 14.4419 179.806 16.92 179.806 20.3047V43.1562H177.901L177.417 37.6992C176.586 39.5227 175.331 41.0022 173.648 42.1328C171.704 43.4389 169.465 44.0937 166.926 44.0938C164.002 44.0938 161.636 43.2785 159.831 41.6426L159.507 41.3213C157.916 39.7337 157.123 37.7119 157.123 35.2588C157.123 32.2211 158.268 29.856 160.555 28.1592C162.842 26.4668 165.698 25.273 169.126 24.583L173.453 23.7764C174.989 23.4683 176.021 23.121 176.538 22.7393C177.043 22.3688 177.297 21.7935 177.312 21.0225L177.315 20.252C177.315 17.6353 176.564 15.752 175.067 14.5977C173.566 13.4434 171.682 12.8662 169.413 12.8662C167.143 12.8662 165.199 13.4129 163.702 14.5107C162.2 15.6087 161.241 17.2147 160.816 19.3281H158.22C158.719 16.4423 159.991 14.2505 162.031 12.749C164.07 11.2476 166.513 10.4971 169.36 10.4971ZM138.315 10.502C142.429 10.502 145.701 11.8776 148.123 14.6289C150.548 17.3802 151.759 21.7197 151.759 27.6387V28.793H125.664C125.812 30.9549 126.325 32.9891 127.206 34.7646C128.265 36.8996 129.792 38.553 131.793 39.7246C133.793 40.8962 136.141 41.4863 138.832 41.4863C141.522 41.4863 143.791 40.8524 145.41 39.5811C147.024 38.3139 148.257 36.4872 149.103 34.1006H151.586C150.818 37.1381 149.342 39.5639 147.173 41.3691C144.998 43.1788 142.125 44.0811 138.545 44.0811C135.507 44.081 132.812 43.3958 130.465 42.0332L130.031 41.7744C127.892 40.4267 126.218 38.5827 125.009 36.2393C123.721 33.7398 123.079 30.8539 123.079 27.582C123.079 24.5053 123.656 21.6673 124.81 19.0723C125.965 16.4772 127.683 14.3987 129.974 12.8408C132.261 11.2829 135.043 10.502 138.315 10.502ZM85.5671 16.4473H85.6276C86.2829 14.7939 87.2252 13.5445 88.4577 12.6982C89.69 11.8521 91.0521 11.4259 92.5534 11.4258C93.3606 11.4258 94.0905 11.561 94.7458 11.8301V18.292C94.4377 18.1748 94.1291 18.092 93.821 18.0312C93.5129 17.9748 93.1485 17.9443 92.7233 17.9443C90.4148 17.9443 88.6747 18.6778 87.4987 20.1357C86.327 21.5982 85.6799 23.5424 85.5671 25.9639V43.166H78.6413V11.4258H84.7038L85.5671 16.4473ZM189.206 17.3711H189.262C189.761 15.6398 190.664 14.2167 191.974 13.1016C193.28 11.9863 194.803 11.4258 196.535 11.4258C197.303 11.4258 197.88 11.5216 198.266 11.7168V14.1992C198.071 14.0821 197.841 14.0088 197.572 13.9697C197.303 13.9307 197.012 13.9131 196.709 13.9131C194.439 13.9131 192.651 14.7763 191.34 16.5078C190.112 18.1312 189.413 20.1591 189.234 22.5947L189.206 23.0869V43.166H186.61V11.4258H188.629L189.206 17.3711ZM216.553 10.502C218.285 10.502 219.939 10.8401 221.518 11.5127C223.093 12.1853 224.404 13.3092 225.441 14.8887C226.478 16.4682 226.999 18.5644 226.999 21.1768V43.1611H224.461V21.7539C224.461 18.4863 223.614 16.1949 221.922 14.8887C220.229 13.5825 218.246 12.9277 215.976 12.9277C213.399 12.9278 211.294 13.6872 209.658 15.2061C208.03 16.7176 206.927 18.6975 206.347 21.1416V43.166H203.752V11.4258H205.77L206.347 17.0244H206.394C207.318 14.8721 208.694 13.2444 210.521 12.1465C212.348 11.0486 214.358 10.502 216.553 10.502ZM256.834 10.502C258.565 10.502 260.219 10.8401 261.799 11.5127C263.374 12.1853 264.684 13.3092 265.721 14.8887C266.759 16.4682 267.279 18.5644 267.279 21.1768V43.1611H264.741V21.7539C264.741 18.4863 263.894 16.1949 262.202 14.8887C260.509 13.5825 258.526 12.9277 256.257 12.9277C253.679 12.9277 251.574 13.6872 249.938 15.2061C248.307 16.7208 247.201 18.7058 246.623 21.1572V43.166H244.028V11.4258H246.046L246.623 17.0244H246.674C247.599 14.8721 248.975 13.2444 250.801 12.1465C252.628 11.0486 254.638 10.502 256.834 10.502ZM107.096 43.1621H100.17V11.4268H107.096V43.1621ZM116.73 43.1621H114.191V0H116.73V43.1621ZM236.694 43.1611H234.098V11.4258H236.694V43.1611ZM41.4899 42.9316H31.9382L17.2096 0H27.03L41.4899 42.9316ZM19.5036 20.9658C19.7207 20.9258 19.9334 20.8875 20.1481 21.0469C20.9767 21.6506 19.7655 26.5066 19.4704 27.5654C17.0878 36.0926 9.36802 43.1486 0.211596 42.8145C-0.530439 39.5901 0.801903 35.35 2.30339 32.4121C5.72303 25.7293 11.8117 21.6803 19.2887 20.999L19.5036 20.9658ZM170.797 26.4922C167.256 27.1865 164.543 28.2417 162.66 29.665C160.777 31.0884 159.831 32.9542 159.831 35.2627C159.831 37.3022 160.512 38.8994 161.879 40.0537C163.241 41.208 165.025 41.7851 167.216 41.7852C169.178 41.7852 170.927 41.3256 172.467 40.4014C174.004 39.4771 175.188 38.2965 176.017 36.8516C176.846 35.4108 177.258 33.9957 177.258 32.6113H177.269L177.297 25.165H177.258L170.797 26.4922ZM284.994 12.5762C282.455 12.5762 280.25 13.3916 278.619 15.0273C276.983 16.6634 276.167 18.8856 276.167 21.6934C276.167 24.5011 276.974 26.6753 278.589 28.2158C280.203 29.7519 282.338 30.5244 284.994 30.5244C287.649 30.5243 289.668 29.7563 291.282 28.2158L291.579 27.9199C292.998 26.4018 293.708 24.3298 293.708 21.6934C293.708 18.8813 292.892 16.6634 291.256 15.0273C289.62 13.3915 287.532 12.5763 284.994 12.5762ZM57.9889 16.0996C56.2228 16.0996 54.6994 16.6592 53.4323 17.7744C52.1609 18.8896 51.5271 20.3912 51.527 22.2744C51.527 24.1578 52.1827 25.6035 53.4889 26.6016C54.7951 27.6039 56.2966 28.1025 57.9889 28.1025C59.6814 28.1025 61.2784 27.604 62.5456 26.6016C63.8171 25.6035 64.4509 24.1578 64.4509 22.2744C64.4508 20.3912 63.817 18.842 62.5456 17.7441C61.2784 16.6463 59.7551 16.0996 57.9889 16.0996ZM138.372 13.04C135.677 13.04 133.367 13.6957 131.445 15.002C129.523 16.3081 128.069 18.0487 127.089 20.2227C126.245 22.0932 125.765 24.1405 125.647 26.3672H149.277V25.5596C149.277 21.2506 148.266 18.0872 146.248 16.0693C144.23 14.0515 141.605 13.0401 138.372 13.04ZM107.378 7.26953H100.109V0.577148H107.378V7.26953ZM236.924 6.11816H233.924V3.28906H236.924V6.11816Z" fill="#12462D"/>
<path d="M164.039 70.1699C166.046 70.1699 168.191 69.667 170.483 68.665C172.776 67.6743 175.145 66.2295 177.586 64.3231C180.149 62.3004 182.32 60.0112 184.102 57.4593C185.885 54.9074 187.233 52.3218 188.162 49.6948C189.076 47.0829 189.541 44.7037 189.541 42.5946C189.541 40.6019 189.137 39.022 188.326 37.8549C187.518 36.7028 186.391 36.1286 184.971 36.1286C183.908 36.1286 182.708 36.4664 181.375 37.1456C180.042 37.8399 178.603 38.8419 177.076 40.1591C175.952 41.1648 174.737 42.4483 173.45 44.0132C172.148 45.5931 170.872 47.2743 169.615 49.0606C168.251 49.5785 167.429 49.9163 167.113 50.0776C169.257 45.9871 171.188 42.5909 172.883 39.8889C174.577 37.1869 175.472 35.7834 175.579 35.652C175.655 35.5357 175.686 35.4156 175.686 35.3143C175.686 35.1679 175.625 35.0328 175.491 34.9015C175.358 34.7851 175.206 34.7251 175.042 34.7251C174.848 34.7251 174.669 34.8152 174.501 35.0066L174.455 35.0666C174.139 35.4944 173.138 37.1043 171.428 39.8814C169.706 42.6584 167.756 46.141 165.555 50.3478L165.182 51.0421C162.904 52.2692 161.107 53.5827 159.774 54.9862C157.432 57.6057 156.263 60.2776 156.263 62.9796C156.263 64.3381 156.579 65.5653 157.207 66.6423C157.835 67.7193 158.734 68.575 159.903 69.2129C161.057 69.8472 162.436 70.1736 164.039 70.1736V70.1699ZM164.039 68.9615C162.661 68.9615 161.492 68.6951 160.52 68.1809C159.545 67.663 158.81 66.9538 158.315 66.0531C157.805 65.1525 157.554 64.1355 157.554 62.9834C157.554 61.8313 157.824 60.6191 158.361 59.3657C158.887 58.1235 159.679 56.9302 160.745 55.7631C161.869 54.611 163.023 53.6953 164.207 53.016C163.053 55.3465 162.108 57.4143 161.389 59.2006C160.669 60.9869 160.311 62.154 160.311 62.6981C160.311 62.9196 160.387 63.111 160.536 63.2573C160.684 63.4037 160.852 63.4787 161.031 63.4787C161.164 63.4787 161.347 63.3887 161.541 63.1973C161.735 63.0059 161.96 62.7244 162.246 62.3566C162.516 61.9889 162.828 61.516 163.19 60.9681C163.533 60.4202 163.94 59.801 164.405 59.0767C165.799 56.8476 167.806 53.8341 170.46 50.0401C173.263 49.0794 175.826 48.5915 178.176 48.5915C179.422 48.5915 180.576 48.7379 181.608 49.0193L181.756 49.0344C181.935 49.0344 182.084 48.9593 182.221 48.828C182.354 48.6929 182.415 48.5615 182.415 48.4302C182.415 48.3138 182.369 48.1937 182.282 48.0774C182.19 47.9761 182.088 47.901 181.95 47.856C180.797 47.5445 179.536 47.3831 178.172 47.3831C175.971 47.3831 173.797 47.7096 171.656 48.3739C172.646 47.0154 173.694 45.6719 174.787 44.3584C175.88 43.045 176.946 41.9379 177.948 41.0522C180.777 38.5717 183.116 37.3333 184.959 37.3333C185.603 37.3333 186.128 37.4796 186.547 37.7761C186.966 38.0726 187.313 38.4703 187.564 38.9582C187.819 39.4611 187.998 40.0202 188.105 40.6394C188.212 41.2586 188.253 41.8966 188.253 42.5458C188.253 44.6286 187.804 46.9178 186.905 49.4397C185.991 51.9653 184.689 54.4308 182.979 56.8664C181.273 59.3019 179.205 61.4747 176.79 63.3774C171.904 67.0964 167.65 68.9577 164.039 68.9577V68.9615ZM162.497 59.7335C162.527 59.6884 162.573 59.5871 162.63 59.452C162.737 59.1706 162.916 58.7578 163.171 58.1986C163.769 56.7951 164.774 54.701 166.168 51.894C167.204 51.3761 167.92 51.0383 168.343 50.862C166.561 53.4326 164.957 55.8381 163.533 58.0823L162.501 59.7372L162.497 59.7335Z" fill="#8AC440"/>
<path d="M191.814 51.733C192.314 51.733 192.751 51.2911 192.751 50.833C192.751 50.375 192.314 49.917 191.814 49.917C191.314 49.917 190.894 50.375 190.894 50.833C190.894 51.2911 191.33 51.733 191.814 51.733ZM188.723 61.488C189.909 61.488 191.628 60.9336 193.783 59.8608C196.327 58.6113 198.732 57.0002 199.482 56.2248C199.593 56.1123 199.669 55.9235 199.669 55.7829C199.669 55.4655 199.324 55.136 198.998 55.136C198.827 55.136 198.621 55.2324 198.514 55.3248C197.827 56.0199 195.545 57.5386 193.172 58.7078C190.953 59.8126 189.532 60.1943 188.723 60.1943C188.1 60.1943 187.988 60.0698 187.988 59.6077C187.988 58.4225 189.314 56.2409 190.612 54.4249C190.675 54.3164 190.707 54.1718 190.707 54.0633C190.707 53.7619 190.378 53.4325 190.052 53.4325C189.85 53.4325 189.6 53.541 189.473 53.7177C187.536 56.4819 186.647 58.3823 186.647 59.6278C186.647 60.5438 187.238 61.492 188.723 61.492V61.488Z" fill="#8AC440"/>
<path d="M207.13 62.2085C208.358 62.2085 209.918 61.5431 211.781 60.1977C212.735 59.503 213.613 58.7788 214.433 58.0436C215.249 57.3047 215.9 56.7129 216.385 56.235L216.716 55.9041C216.777 55.8453 216.839 55.7865 216.881 55.7314C216.927 55.6873 216.974 55.6321 217.001 55.5733C217.016 55.5145 217.031 55.4446 217.031 55.3711C217.031 55.2425 216.97 55.0954 216.85 54.9668C216.727 54.8381 216.577 54.7793 216.381 54.7793C216.2 54.7793 216.019 54.8675 215.834 55.0403C215.442 55.4299 214.76 56.0512 213.805 56.9187C212.851 57.801 211.896 58.5803 210.957 59.2897C209.305 60.4477 208.035 61.0248 207.138 61.0248C206.73 61.0248 206.426 60.8815 206.26 60.6058C206.095 60.3301 206.003 59.9404 206.003 59.4184C206.003 58.6942 206.168 57.7973 206.518 56.7129C206.973 55.4115 207.427 54.3418 207.866 53.489C208.212 52.8089 208.412 52.3016 208.47 51.9855C208.47 51.8127 208.409 51.6657 208.274 51.537C208.139 51.4194 207.985 51.3643 207.804 51.3643C207.608 51.3643 207.35 51.4672 207.061 51.6841C206.757 51.901 206.545 52.0737 206.411 52.2061L206.214 52.3788L206.107 52.2906C205.425 51.8274 204.682 51.5958 203.897 51.5958C203.112 51.5958 202.261 51.8127 201.46 52.2318C200.656 52.6656 199.901 53.2023 199.204 53.8382C198.508 54.4889 197.919 55.1395 197.418 55.8196C197.268 56.0071 197.087 56.2828 196.872 56.6136C196.66 56.9444 196.479 57.3084 196.31 57.698C196.144 58.0877 196.052 58.4516 196.052 58.7825C196.052 59.1721 196.159 59.4625 196.371 59.65C196.583 59.8375 196.887 59.9404 197.28 59.9808C197.357 59.9808 197.445 59.9661 197.538 59.9514C197.63 59.9367 197.734 59.922 197.842 59.8926C197.949 59.8632 198.084 59.8191 198.219 59.764C198.354 59.7198 198.492 59.65 198.658 59.5765C198.823 59.503 198.993 59.4037 199.189 59.3008C199.37 59.1978 199.566 59.0839 199.793 58.9552C200.005 58.8266 200.232 58.6648 200.49 58.4921C200.748 58.3193 201.021 58.1318 201.306 57.9149C203.062 56.5989 204.667 55.3123 206.107 54.0698L206.199 53.9963L206.049 54.3712H206.033V54.4006C206.033 54.4006 206.018 54.4153 206.018 54.4448H206.003L205.972 54.533C205.837 54.794 205.595 55.4005 205.275 56.371C205.063 57.0069 204.913 57.573 204.821 58.0767C204.728 58.5839 204.686 59.0324 204.686 59.4221C204.686 60.1316 204.805 60.694 205.048 61.102C205.29 61.5064 205.595 61.7968 205.972 61.9549C206.349 62.1276 206.73 62.2159 207.123 62.2159L207.13 62.2085ZM197.36 58.7972V58.7678C197.36 58.3046 197.753 57.5253 198.558 56.4114C199.362 55.2976 200.39 54.3418 201.649 53.5331C201.984 53.3309 202.346 53.1582 202.738 53.0111C203.115 52.8677 203.512 52.7942 203.92 52.7942C204.374 52.7942 204.813 52.9229 205.221 53.1692C203.708 54.4999 202.13 55.7718 200.494 56.9886C198.996 58.0877 197.949 58.6795 197.36 58.7972Z" fill="#8AC440"/>
<path d="M214.412 66.5456C214.782 66.5456 215.224 66.445 215.68 66.281C217.862 65.4763 223.065 60.9309 226.772 56.0502C226.844 55.9645 226.888 55.8155 226.888 55.7C226.888 55.4057 226.616 55.1002 226.29 55.1002C226.12 55.1002 225.891 55.2045 225.79 55.3498C222.239 59.9958 216.579 65.3459 214.412 65.3459C214.057 65.3459 213.912 65.2863 213.912 64.5411C213.912 63.1626 214.825 59.7759 219.402 51.408C222.808 45.2084 226.674 39.1392 227.058 38.5394C227.131 38.45 227.16 38.3196 227.16 38.219C227.16 37.9396 226.873 37.6191 226.562 37.6191C226.377 37.6191 226.149 37.7197 226.033 37.8837C225.62 38.5133 221.8 44.508 218.336 50.8417C215.144 56.6463 212.691 61.9667 212.691 64.5188C212.691 65.8824 213.459 66.5567 214.416 66.5567L214.412 66.5456Z" fill="#8AC440"/>
<path d="M225.537 62.2162C226.34 62.1854 227.042 61.8809 227.664 61.2912C228.285 60.7169 228.771 60.0192 229.138 59.1983C229.504 58.3811 229.701 57.591 229.728 56.8162C230.018 56.8625 230.473 56.8933 231.063 56.8933C232.036 56.8933 232.931 56.8162 233.734 56.6813C234.54 56.5464 235.038 56.4539 235.266 56.3923L235.343 56.3768C235.478 56.3306 235.602 56.2535 235.706 56.134C235.798 56.0145 235.841 55.8912 235.841 55.7717C235.841 55.6368 235.779 55.4826 235.644 55.3477C235.509 55.2128 235.339 55.1511 235.158 55.1511C234.915 55.1974 234.656 55.2436 234.382 55.3015C234.015 55.3785 233.576 55.4518 233.078 55.5289C232.561 55.606 231.908 55.6522 231.121 55.6522C230.542 55.6522 230.06 55.6214 229.663 55.5443C229.555 54.97 229.373 54.4689 229.145 54.0565C229.145 53.8599 229.084 53.7057 228.949 53.5708C228.841 53.4629 228.736 53.4051 228.598 53.3897C228.416 53.1931 228.204 53.0582 227.976 52.9503C227.733 52.8578 227.536 52.8115 227.386 52.8115C227.158 52.8115 226.93 52.904 226.718 53.0698C226.491 53.2509 226.382 53.5092 226.382 53.8445C226.382 54.1182 226.46 54.4188 226.61 54.7696C226.155 55.1935 225.638 55.8025 225.063 56.5734C224.912 56.77 224.773 56.9666 224.654 57.1631C224.53 57.3597 224.426 57.5409 224.333 57.7105C224.225 57.8916 224.137 58.0574 224.059 58.2269C223.982 58.3927 223.909 58.5469 223.863 58.6972C223.801 58.8475 223.755 58.9863 223.712 59.1212C223.666 59.2561 223.635 59.3948 223.619 59.5143C223.589 59.6377 223.573 59.7571 223.558 59.8612C223.542 59.9653 223.542 60.0732 223.542 60.1811C223.542 60.6514 223.619 60.9983 223.785 61.2257C224.179 61.8771 224.758 62.2124 225.53 62.2124L225.537 62.2162ZM225.522 60.9751C225.402 60.9751 225.294 60.9597 225.202 60.9135C225.097 60.8826 225.02 60.8094 224.943 60.686C224.928 60.6398 224.897 60.582 224.881 60.5049C224.866 60.4278 224.85 60.3237 224.85 60.185C224.85 59.9113 224.943 59.549 225.109 59.0788C225.275 58.6085 225.626 58.0188 226.128 57.2903C226.629 56.6081 227.039 56.1379 227.328 55.8488C227.556 56.0762 227.934 56.3036 228.435 56.5002C228.435 56.6968 228.42 56.9242 228.374 57.1978C228.327 57.4869 228.25 57.7875 228.146 58.1075C228.038 58.4274 227.887 58.7743 227.706 59.1366C227.386 59.7726 227.023 60.2428 226.614 60.5319C226.205 60.821 225.838 60.9713 225.522 60.9713V60.9751ZM227.675 54.1336C227.598 54.1182 227.552 54.1027 227.525 54.1027L227.432 54.0565L227.417 54.0411C227.401 53.9948 227.386 53.9486 227.386 53.9177C227.401 53.8252 227.432 53.7828 227.509 53.7828C227.571 53.7828 227.617 53.7982 227.633 53.8291C227.648 53.8599 227.664 53.9062 227.679 53.9524L227.695 53.9833L227.679 54.1336H227.675Z" fill="#8AC440"/>
<path d="M244.909 54.4393V54.5578C244.909 54.9058 244.804 55.4756 244.585 56.2749C244.369 57.0741 244.045 58.0034 243.63 59.0742C240.351 61.254 237.397 63.3152 234.748 65.2579C233.93 65.843 232.933 66.6728 231.747 67.7092C230.546 68.7608 229.329 69.9502 228.101 71.258C227.099 72.2982 226.16 73.4722 225.252 74.7495C224.344 76.0268 223.789 77.2314 223.589 78.3595C223.558 78.5852 223.542 78.8108 223.542 79.0058C223.542 79.6368 223.711 80.134 224.035 80.482C224.36 80.8414 224.79 81.025 225.326 81.025C226.05 81.025 226.989 80.7076 228.144 80.0613C230.358 78.8414 232.514 77.2161 234.592 75.1549C236.669 73.0936 238.716 70.5047 240.719 67.3765C242.413 64.6996 243.735 62.2024 244.706 59.8696C248.016 57.6745 250.23 56.3322 251.342 55.8657C251.619 55.7013 251.756 55.5062 251.756 55.2806C251.756 55.1467 251.694 54.9938 251.557 54.8599C251.42 54.7261 251.263 54.6649 251.064 54.6649C250.465 54.8446 249.616 55.2806 248.493 55.9575C247.37 56.6344 246.369 57.2653 245.492 57.8543C245.661 57.3877 245.833 56.8332 246.001 56.1678C246.153 55.5215 246.232 54.9785 246.232 54.5425C246.232 54.1831 246.138 53.8656 245.954 53.5788C245.754 53.292 245.477 53.1582 245.093 53.1582C244.831 53.1582 244.506 53.2805 244.092 53.5176C243.677 53.7586 243.199 54.076 242.691 54.4507C242.182 54.8255 241.627 55.25 241.059 55.686C239.921 56.6038 238.813 57.4145 237.718 58.122C237.35 58.3476 237.01 58.5273 236.701 58.6803C236.391 58.8447 236.118 58.9671 235.871 59.0551C235.609 59.1621 235.378 59.2195 235.179 59.2654C234.979 59.3113 234.795 59.3266 234.639 59.3266C234.482 59.3266 234.376 59.3113 234.298 59.2654C234.22 59.2348 234.161 59.1774 234.146 59.0857C234.114 58.9939 234.099 58.8753 234.099 58.7262C234.099 58.229 234.267 57.7013 234.592 57.1315C234.916 56.577 235.3 56.0646 235.746 55.598C236.438 54.8905 237.178 54.336 237.964 53.9268C238.751 53.5215 239.658 53.3264 240.672 53.3264C241.055 53.3264 241.38 53.357 241.611 53.4297C241.842 53.5062 242.026 53.5635 242.167 53.64C242.335 53.7433 242.491 53.7892 242.644 53.7892C242.812 53.7892 242.98 53.7127 243.121 53.5788C243.258 53.4412 243.321 53.3073 243.321 53.1735C243.321 52.9631 243.199 52.7681 242.953 52.5998C242.691 52.4354 242.37 52.313 241.967 52.2251C241.552 52.1333 241.122 52.0874 240.644 52.0874C239.815 52.0874 239.044 52.2098 238.336 52.4507C237.612 52.6916 236.967 53.009 236.38 53.4144C235.777 53.8198 235.257 54.2557 234.779 54.7529C234.271 55.2653 233.825 55.881 233.41 56.5885C232.995 57.3112 232.78 58.0187 232.78 58.7262C232.78 59.2539 232.933 59.6899 233.257 60.0341C233.567 60.3782 234.028 60.5618 234.642 60.5618C235.135 60.5618 235.707 60.4394 236.352 60.1985C236.998 59.9576 237.706 59.6134 238.461 59.1468C239.709 58.3208 241.001 57.3877 242.327 56.3169C243.019 55.7739 243.602 55.3227 244.111 54.9479C244.463 54.6917 244.725 54.5119 244.913 54.4355L244.909 54.4393ZM225.33 79.7898C225.162 79.7898 225.084 79.7745 225.068 79.7439C224.931 79.6215 224.869 79.3844 224.869 79.0211C224.869 78.2525 225.146 77.3805 225.698 76.4169C226.238 75.4685 226.946 74.4742 227.807 73.4684C228.652 72.4588 229.576 71.4837 230.546 70.5353C231.516 69.5869 232.455 68.7455 233.347 67.9922C234.224 67.2541 234.963 66.6537 235.566 66.2178C238.09 64.3822 240.461 62.7263 242.663 61.2387C242.049 62.5924 241.016 64.428 239.584 66.7608C235.996 72.4626 231.966 76.5392 227.471 78.9944C226.899 79.3118 226.438 79.5221 226.101 79.6253C225.761 79.7324 225.503 79.7898 225.33 79.7898Z" fill="#8AC440"/>
<path d="M249.427 62.2156C249.727 62.2156 250.099 62.1266 250.547 61.9252C250.996 61.7277 251.52 61.4373 252.116 61.0423C252.713 60.6628 253.385 60.1594 254.133 59.5475C254.882 58.9551 255.702 58.2387 256.599 57.3984C256.584 57.4448 256.523 57.6578 256.436 58.0528C256.348 58.4478 256.303 58.8466 256.303 59.2416C256.303 59.6366 256.39 60.0045 256.557 60.3065C256.633 60.4459 256.781 60.597 256.99 60.7325C257.199 60.868 257.469 60.9455 257.811 60.9455C258.544 60.9455 259.334 60.7635 260.173 60.3801C261.009 60.0161 261.818 59.5747 262.593 59.0403C263.372 58.5059 264.06 58.0063 264.671 57.5029C265.268 56.9995 265.716 56.62 266.016 56.3296C266.149 56.163 266.225 56.0236 266.225 55.8881C266.225 55.7371 266.164 55.5977 266.031 55.4621C265.898 55.3266 265.746 55.2646 265.583 55.2646C265.435 55.2646 265.283 55.3266 265.135 55.4466C264.762 55.7952 264.162 56.2986 263.357 56.9414C262.536 57.5958 261.64 58.1922 260.652 58.7537C259.664 59.3191 258.726 59.6211 257.826 59.6986C257.708 59.6986 257.647 59.6831 257.647 59.6676C257.602 59.6056 257.571 59.4701 257.571 59.2571C257.571 58.4633 258.02 57.0924 258.916 55.1601C258.962 55.0555 258.977 54.9626 258.977 54.8851C258.977 54.7186 258.886 54.5521 258.722 54.3972C258.692 54.3817 258.646 54.3508 258.574 54.3043C258.498 54.2733 258.426 54.2578 258.335 54.2578C258.202 54.2578 258.096 54.2888 258.004 54.3508C257.913 54.4127 257.826 54.4902 257.735 54.5792C256.12 56.1476 254.673 57.4603 253.37 58.5097C252.489 59.2261 251.786 59.7605 251.246 60.1091C250.707 60.4576 250.319 60.686 250.08 60.7635C249.841 60.8564 249.677 60.899 249.586 60.899C249.48 60.899 249.423 60.8526 249.423 60.7635V60.748C249.423 60.597 249.453 60.3685 249.529 60.0781C249.59 59.7876 249.708 59.3927 249.902 58.8892C250.559 57.3054 251.216 56.1476 251.858 55.4157C251.961 55.2646 252.021 55.1252 252.021 55.0052C252.021 54.8387 251.961 54.6993 251.828 54.5637C251.691 54.4282 251.543 54.3662 251.379 54.3662C251.231 54.3662 251.064 54.4282 250.901 54.5637C250.468 55.0517 250.05 55.6751 249.632 56.4535C249.214 57.2318 248.853 58.0063 248.572 58.8002C248.287 59.6056 248.139 60.2639 248.139 60.7674C248.139 61.1159 248.245 61.4373 248.466 61.7432C248.675 62.0646 248.99 62.2156 249.423 62.2156H249.427Z" fill="#8AC440"/>
<path d="M266.008 62.2126C266.851 62.2126 267.826 61.9567 268.913 61.4484C269.986 60.951 271.175 60.23 272.448 59.3072C273.706 58.2871 274.88 57.2634 275.968 56.2432C276.084 56.1423 276.153 56.0738 276.168 56.0594C276.295 55.9044 276.353 55.7746 276.353 55.6484C276.353 55.5223 276.295 55.3781 276.182 55.2519C276.055 55.1258 275.909 55.0681 275.739 55.0681C275.611 55.0681 275.48 55.1258 275.324 55.2231C274.553 55.962 273.335 57.011 271.691 58.3844C269.215 60.1579 267.313 61.0519 266.011 61.0519C265.037 61.0375 264.553 60.5689 264.553 59.6461C264.553 59.0946 264.695 58.4817 264.982 57.8293C265.269 57.1768 265.597 56.6109 265.968 56.1279C266.124 56.1711 266.411 56.2 266.855 56.2C266.957 56.2 267.069 56.2 267.186 56.1855C267.302 56.1711 267.415 56.1567 267.542 56.1423C267.669 56.1279 267.8 56.1134 267.928 56.0702C268.055 56.0414 268.171 55.9981 268.299 55.9584C268.426 55.9152 268.542 55.8719 268.669 55.8179C269.04 55.634 269.328 55.4502 269.513 55.2375C269.699 55.0248 269.815 54.8266 269.884 54.6283C269.942 54.4445 269.971 54.2895 269.971 54.1597C269.971 53.8353 269.844 53.5217 269.586 53.2369C269.313 52.9521 269 52.8115 268.626 52.8115C268.168 52.8115 267.568 53.053 266.822 53.5217C266.466 53.792 266.077 54.1597 265.691 54.5995L265.106 55.2663C264.662 55.8467 264.262 56.528 263.891 57.321C263.52 58.1285 263.331 58.8963 263.331 59.6461C263.331 60.3562 263.56 60.9654 264.033 61.4629C264.491 61.9603 265.149 62.2162 266.008 62.2162V62.2126ZM266.895 55.0392C267.237 54.7004 267.568 54.43 267.895 54.2462C268.222 54.0624 268.466 53.9614 268.626 53.9614C268.669 53.9614 268.709 53.9903 268.728 54.0335C268.742 54.0768 268.742 54.1309 268.742 54.1885C268.699 54.43 268.499 54.6427 268.113 54.7977C267.742 54.9527 267.342 55.0392 266.899 55.0392H266.895Z" fill="#8AC440"/>
<path d="M272.512 69.6762C272.134 69.6762 271.959 69.5853 271.87 69.3351C271.84 69.2744 271.825 69.1872 271.825 69.0204C271.825 68.3798 272.204 66.9773 274.589 64.3086C275.656 63.1297 276.885 61.966 277.922 61.1017C278.011 61.4163 278.126 62.0114 278.126 62.6521C278.126 63.8007 277.747 65.0099 276.722 66.5906C275.436 68.5883 273.623 69.6762 272.512 69.6762ZM272.512 70.8855C274.002 70.8855 276.239 69.6611 277.803 67.2161C278.869 65.5595 279.382 64.1153 279.382 62.6824C279.382 61.8333 279.222 60.9842 278.974 60.2677C280.902 58.7325 283.168 57.2996 285.405 56.2268C285.609 56.1359 285.758 55.8857 285.758 55.6886C285.758 55.4043 285.449 55.0783 285.115 55.0783C285.03 55.0783 284.926 55.0934 284.836 55.1389C282.6 56.2117 280.333 57.6446 278.52 59.0471C278.491 59.0016 277.673 57.1252 277.25 56.1851C277.105 55.844 277.03 55.5597 277.03 55.2905C277.03 54.4263 277.673 53.8425 279.148 53.2777C279.367 53.1753 279.542 52.9062 279.542 52.6977C279.542 52.4134 279.234 52.0874 278.884 52.0874L278.695 52.1329C276.781 52.8797 275.771 53.9373 275.771 55.264C275.771 56.1586 276.343 57.2617 276.707 58.0691C277.03 58.7704 277.305 59.411 277.48 59.8735C273.694 62.944 270.566 66.7801 270.566 69.0318C270.566 70.0743 271.268 70.8968 272.509 70.8968L272.512 70.8855Z" fill="#8AC440"/>
</svg>
