<svg width="250" height="47" viewBox="0 0 250 47" fill="none" xmlns="http://www.w3.org/2000/svg">
<path fill-rule="evenodd" clip-rule="evenodd" d="M48.3277 8.75195C49.8819 8.75196 51.2992 9.00887 52.5816 9.52148H61.5494V14.4258L57.4078 14.1084C57.9889 15.4064 58.2798 16.8894 58.2798 18.5586C58.2798 20.5765 57.8526 22.2044 57.0064 23.6328C56.1567 25.0573 54.9782 26.1565 53.4742 26.9268C51.9662 27.697 50.2516 28.0811 48.3277 28.0811C47.6104 28.0811 46.9159 28.0267 46.2486 27.9199C45.7281 27.9532 45.2568 28.0166 44.8345 28.1094C44.1764 28.254 43.6481 28.4532 43.2466 28.71C42.8453 28.9667 42.6461 29.2886 42.6461 29.6719C42.6461 30.0552 42.8562 30.3445 43.272 30.5361C43.6879 30.7278 44.3136 30.8252 45.149 30.8252H55.2457C56.5909 30.8252 57.7629 31.0822 58.7574 31.5957C59.7518 32.1092 60.5037 32.8294 61.0172 33.7588C61.5306 34.6881 61.7876 35.8088 61.7877 37.125C61.7877 39.0163 61.2593 40.6515 60.1998 42.0293C59.1402 43.4069 57.5707 44.4735 55.4879 45.2256C53.4049 45.9777 50.823 46.3545 47.7457 46.3545C44.2849 46.3545 41.5509 45.8405 39.5474 44.8135L39.1832 44.6182C37.4226 43.5935 36.5426 42.1049 36.5425 40.1523C36.5425 38.9662 36.933 37.9574 37.7213 37.1221C38.3067 36.4989 39.2259 35.8148 40.481 35.0693C40.2486 34.9541 40.0246 34.8307 39.8111 34.6953C38.3683 33.7805 37.6491 32.54 37.649 30.9707C37.649 29.9111 37.9781 28.9592 38.6363 28.1094C39.2945 27.2597 40.2888 26.5869 41.6158 26.0879C41.6535 26.0738 41.6917 26.0605 41.73 26.0469C40.8681 25.3883 40.1488 24.5847 39.5728 23.6328C38.7085 22.208 38.274 20.515 38.274 18.5586C38.2741 16.6024 38.7159 14.7837 39.5982 13.2939C40.4805 11.8042 41.6734 10.6719 43.1812 9.90527C44.6892 9.135 46.4038 8.75195 48.3277 8.75195ZM237.494 8.75195C238.989 8.75195 240.275 9.00905 241.46 9.52148H249.471V11.4453L244.048 11.2695C244.564 11.7946 245.009 12.3975 245.381 13.0801C246.152 14.4904 246.535 16.1581 246.535 18.082C246.535 20.0057 246.152 21.6475 245.381 23.0107C244.611 24.3741 243.537 25.4151 242.159 26.1348C240.781 26.8544 239.208 27.2168 237.447 27.2168C236.286 27.2168 235.169 27.0584 234.152 26.7451C233.423 26.7888 232.758 26.9264 232.16 27.1621C231.422 27.4514 230.836 27.8346 230.406 28.3154C229.972 28.7964 229.758 29.2778 229.758 29.7588C229.758 30.4314 230.135 31.0029 230.887 31.4658C231.639 31.9322 232.739 32.164 234.181 32.1641H243.606C245.016 32.1641 246.195 32.3805 247.139 32.8145C248.083 33.2484 248.799 33.8813 249.28 34.7129C249.761 35.5483 250 36.5398 250 37.6934C249.999 39.4253 249.478 40.9402 248.437 42.2383C247.396 43.5365 245.887 44.5463 243.917 45.2695C241.946 45.9891 239.58 46.3506 236.825 46.3506C233.364 46.3506 230.782 45.797 229.083 44.6904L228.77 44.4854C227.276 43.3962 226.529 41.9189 226.529 40.0576C226.529 38.7126 226.985 37.5269 227.9 36.5C228.637 35.6728 229.731 34.7976 231.185 33.8662C230.578 33.6764 230.029 33.4229 229.538 33.1006C228.337 32.3159 227.734 31.2954 227.734 30.0479C227.734 29.2163 228.005 28.4533 228.55 27.7627C229.096 27.0756 229.874 26.5114 230.883 26.0811C231.226 25.9338 231.584 25.8131 231.959 25.7158C230.93 25.0306 230.108 24.1293 229.488 23.0107C228.736 21.6511 228.359 20.0058 228.359 18.082C228.359 16.1581 228.743 14.4978 229.513 13.1055C230.283 11.7134 231.357 10.6359 232.735 9.88379C234.113 9.13163 235.7 8.75199 237.494 8.75195ZM233.128 34.2354C231.73 35.1274 230.666 35.9698 229.943 36.7598C229.079 37.7036 228.645 38.724 228.645 39.8125C228.645 41.2227 229.31 42.3291 230.641 43.1318C231.972 43.931 234.081 44.333 236.966 44.333C240.235 44.333 242.889 43.7937 244.925 42.7197C246.961 41.6457 247.978 40.051 247.978 37.9355C247.978 36.7168 247.594 35.8055 246.824 35.1943C246.053 34.5868 244.755 34.2793 242.929 34.2793H234.178C233.816 34.2793 233.465 34.2641 233.128 34.2354ZM43.9341 35.9932C43.4837 36.3239 43.1268 36.6283 42.8638 36.9082C42.3033 37.5012 42.0211 38.1341 42.0211 38.8066C42.0211 39.7035 42.5347 40.3615 43.5582 40.7773C44.5852 41.1932 46.1873 41.4033 48.3677 41.4033C51.0905 41.4033 53.1443 41.1139 54.522 40.5391C55.8999 39.9604 56.5914 39.1103 56.5914 37.9893C56.5913 37.2844 56.2944 36.7893 55.7017 36.5C55.1086 36.2107 54.1388 36.0654 52.7935 36.0654H45.438C44.9145 36.0654 44.4133 36.0401 43.9341 35.9932ZM141.133 8.74805C143.506 8.74805 145.629 9.40602 147.314 10.7188C148.995 12.0351 149.837 14.1003 149.837 16.9209V35.9639H148.251L147.847 31.416C147.155 32.9358 146.109 34.1691 144.707 35.1113C143.087 36.1998 141.22 36.745 139.105 36.7451C136.668 36.7451 134.696 36.0655 133.192 34.7021L132.921 34.4355C131.596 33.1125 130.935 31.4271 130.935 29.3828C130.935 26.8514 131.89 24.8798 133.795 23.4658C135.701 22.0555 138.081 21.0613 140.938 20.4863L144.544 19.8135C145.824 19.5567 146.684 19.2675 147.115 18.9492C147.538 18.6386 147.75 18.156 147.76 17.5078L147.762 16.877C147.762 14.6966 147.137 13.1269 145.889 12.165C144.638 11.2031 143.068 10.7227 141.176 10.7227C139.285 10.7227 137.665 11.1779 136.418 12.0928C135.166 13.0077 134.368 14.3463 134.013 16.1074H131.85C132.266 13.7028 133.326 11.8762 135.025 10.625C136.725 9.37376 138.761 8.74805 141.133 8.74805ZM115.262 8.75195C118.69 8.75197 121.417 9.89777 123.435 12.1904C125.457 14.4832 126.465 18.0997 126.465 23.0322V23.9941H104.719C104.843 25.7959 105.271 27.491 106.004 28.9707C106.887 30.7497 108.16 32.1272 109.827 33.1035C111.494 34.0799 113.451 34.5723 115.693 34.5723C117.935 34.5722 119.827 34.0439 121.175 32.9844C122.52 31.9284 123.547 30.4058 124.253 28.417H126.321C125.681 30.9484 124.451 32.9702 122.643 34.4746C120.831 35.9826 118.437 36.7344 115.454 36.7344C112.922 36.7343 110.677 36.1628 108.72 35.0273L108.359 34.8125C106.576 33.6894 105.181 32.1531 104.174 30.2002C103.1 28.1172 102.565 25.7121 102.565 22.9854C102.565 20.4214 103.046 18.0561 104.008 15.8936C104.97 13.7311 106.403 11.9994 108.312 10.7012C110.218 9.40296 112.536 8.75195 115.262 8.75195ZM71.3062 13.7061H71.356C71.9021 12.3282 72.6874 11.2862 73.7144 10.5811C74.7414 9.87599 75.8773 9.52148 77.1285 9.52148C77.8009 9.52153 78.4087 9.63423 78.9547 9.8584V15.2432C78.6979 15.1455 78.4409 15.076 78.1841 15.0254C77.9274 14.9784 77.6235 14.9531 77.2691 14.9531C75.3453 14.9531 73.8946 15.5643 72.9146 16.7793C71.9992 17.9218 71.4689 19.4176 71.3287 21.2627L71.3062 21.6367V35.9717H65.5338V9.52148H70.5865L71.3062 13.7061ZM157.67 14.4766H157.718C158.134 13.0337 158.886 11.8473 159.978 10.918C161.067 9.98858 162.336 9.52149 163.779 9.52148C164.419 9.52148 164.9 9.60094 165.222 9.76367V11.833C165.059 11.7354 164.867 11.6732 164.643 11.6406C164.419 11.6081 164.176 11.5938 163.923 11.5938C162.032 11.5938 160.542 12.314 159.45 13.7568C158.426 15.1094 157.844 16.7989 157.695 18.8281L157.67 19.2393V35.9717H155.508V9.52148H157.19L157.67 14.4766ZM180.461 8.75195C181.903 8.75195 183.282 9.03322 184.598 9.59375C185.911 10.1542 187.003 11.0911 187.867 12.4072C188.731 13.7235 189.166 15.4705 189.166 17.6475V35.9678H187.05V18.1289C187.05 15.4058 186.345 13.4957 184.934 12.4072C183.524 11.3189 181.871 10.7734 179.98 10.7734C177.832 10.7734 176.078 11.4062 174.714 12.6719C173.358 13.9311 172.439 15.5804 171.956 17.6162V35.9717H169.793V9.52148H171.474L171.956 14.1865H171.995C172.765 12.3929 173.912 11.037 175.434 10.1221C176.956 9.20722 178.631 8.75203 180.461 8.75195ZM214.028 8.75195C215.471 8.75198 216.848 9.03332 218.165 9.59375C219.477 10.1543 220.57 11.091 221.434 12.4072C222.298 13.7235 222.732 15.4705 222.732 17.6475V35.9678H220.617V18.1289C220.617 15.4059 219.912 13.4958 218.502 12.4072C217.091 11.3187 215.438 10.7734 213.546 10.7734C211.399 10.7735 209.645 11.4063 208.282 12.6719C206.921 13.9349 206 15.5903 205.518 17.6348V35.9717H203.356V9.52148H205.038L205.518 14.1865H205.562C206.332 12.3931 207.478 11.0369 209.001 10.1221C210.523 9.20714 212.198 8.75195 214.028 8.75195ZM89.2466 35.9678H83.4752V9.52148H89.2466V35.9678ZM97.275 35.9678H95.1588V0H97.275V35.9678ZM197.245 35.9678H195.082V9.52148H197.245V35.9678ZM34.5748 35.7764H26.6148L14.3414 0H22.525L34.5748 35.7764ZM16.2525 17.4717C16.4336 17.4383 16.6106 17.4062 16.7896 17.5391C17.4803 18.0417 16.4711 22.0881 16.2252 22.9707C14.2398 30.0768 7.80676 35.9572 0.176329 35.6787C-0.442042 32.9919 0.668297 29.459 1.91949 27.0107C4.76916 21.4416 9.84286 18.0668 16.0738 17.499L16.2525 17.4717ZM142.331 22.0771C139.38 22.6558 137.119 23.5345 135.549 24.7207C133.98 25.9068 133.192 27.4621 133.192 29.3857C133.192 31.0854 133.76 32.417 134.899 33.3789C136.034 34.3407 137.521 34.8213 139.347 34.8213C140.982 34.8212 142.439 34.4381 143.722 33.668C145.002 32.8977 145.99 31.9142 146.681 30.71C147.372 29.5094 147.715 28.3303 147.715 27.1768H147.724L147.747 20.9707H147.715L142.331 22.0771ZM237.494 10.4805C235.378 10.4805 233.541 11.1601 232.181 12.5234C230.818 13.8868 230.138 15.7385 230.138 18.0781C230.138 20.4178 230.811 22.2299 232.156 23.5137C233.501 24.7938 235.281 25.4374 237.494 25.4375C239.707 25.4375 241.389 24.7973 242.734 23.5137L242.982 23.2666C244.164 22.0016 244.755 20.275 244.755 18.0781C244.755 15.7348 244.076 13.8868 242.712 12.5234C241.349 11.1601 239.609 10.4805 237.494 10.4805ZM48.3238 13.417C46.8521 13.4171 45.5828 13.8832 44.5269 14.8125C43.4674 15.7419 42.9391 16.9931 42.939 18.5625C42.939 20.1319 43.4854 21.3362 44.5738 22.168C45.6622 23.0033 46.9135 23.4189 48.3238 23.4189C49.7342 23.4189 51.0657 23.0033 52.1216 22.168C53.181 21.3362 53.7086 20.1318 53.7086 18.5625C53.7085 16.9932 53.1811 15.702 52.1216 14.7871C51.0657 13.8722 49.7956 13.417 48.3238 13.417ZM115.309 10.8672C113.063 10.8672 111.14 11.4134 109.538 12.502C107.936 13.5905 106.724 15.0408 105.907 16.8525C105.204 18.4113 104.804 20.1172 104.706 21.9727H124.397V21.2998C124.397 17.709 123.554 15.0731 121.873 13.3916C120.191 11.71 118.003 10.8672 115.309 10.8672ZM89.481 6.05762H83.4244V0.481445H89.481V6.05762ZM197.436 5.09863H194.937V2.74121H197.436V5.09863Z" fill="white"/>
</svg>
