<svg width="155" height="155" viewBox="0 0 155 155" fill="none" xmlns="http://www.w3.org/2000/svg">
<g clip-path="url(#clip0_1_8)">
<path d="M0 6.77527e-06L4.61612 6.57349e-06C4.61612 82.9239 72.0761 150.384 155 150.384L155 155C69.528 155 3.7361e-06 85.472 0 6.77527e-06Z" fill="#039045"/>
<path d="M25.6841 2.20341e-05L34.9163 2.16305e-05C34.9163 66.2136 88.7864 120.074 154.991 120.074L154.991 129.307C83.6902 129.307 25.6841 71.3006 25.6841 2.20341e-05Z" fill="#039045"/>
<path d="M51.3774 2.20341e-05L65.2258 2.14287e-05C65.2258 49.5033 105.497 89.7743 155 89.7743L155 103.623C97.8618 103.623 51.3774 57.1383 51.3774 2.20341e-05Z" fill="#039045"/>
<path d="M77.0615 1.44047e-05L95.526 1.35976e-05C95.526 32.7929 122.207 59.4741 155 59.4741L155 77.9385C112.024 77.9385 77.0615 42.9761 77.0615 1.44047e-05Z" fill="#DFD3BF"/>
<path d="M100.438 1.44047e-05L128.134 1.3194e-05C128.134 14.8085 140.182 26.8566 154.991 26.8566L154.991 54.5533C124.912 54.5533 100.438 30.0786 100.438 1.44047e-05Z" fill="#DFD3BF"/>
</g>
<defs>
<clipPath id="clip0_1_8">
<rect width="155" height="155" fill="white" transform="translate(6.77527e-06 155) rotate(-90)"/>
</clipPath>
</defs>
</svg>
